<svg viewBox="0 0 1000 1000" width="1000" height="1000" x="0" y="0" xmlns="http://www.w3.org/2000/svg"><defs><pattern id="pattern" x="0" y="0" width="8" height="8" patternUnits="userSpaceOnUse"><polygon points="0,4 0,8 8,0 4,0" fill="#ffffff"></polygon><polygon points="4,8 8,8 8,4" fill="#ffffff"></polygon></pattern><mask id="grating" x="0" y="0" width="1" height="1"><rect x="0" y="0" width="100%" height="100%" fill="url(#pattern)"></rect></mask></defs><g id="horizStripes"><rect fill="#14465C" height="16" width="100%" x="0" y="0"></rect><rect fill="#604000" height="112" width="100%" x="0" y="16"></rect><rect fill="#14465C" height="16" width="100%" x="0" y="128"></rect><rect fill="#D87C00" height="16" width="100%" x="0" y="144"></rect><rect fill="#880000" height="40" width="100%" x="0" y="160"></rect><rect fill="#649848" height="40" width="100%" x="0" y="200"></rect><rect fill="#14465C" height="128" width="100%" x="0" y="240"></rect><rect fill="#6B8A96" height="16" width="100%" x="0" y="368"></rect><rect fill="#14465C" height="16" width="100%" x="0" y="384"></rect><rect fill="#6B8A96" height="216" width="100%" x="0" y="400"></rect><rect fill="#14465C" height="16" width="100%" x="0" y="616"></rect><rect fill="#6B8A96" height="16" width="100%" x="0" y="632"></rect><rect fill="#14465C" height="128" width="100%" x="0" y="648"></rect><rect fill="#649848" height="40" width="100%" x="0" y="776"></rect><rect fill="#880000" height="40" width="100%" x="0" y="816"></rect><rect fill="#D87C00" height="16" width="100%" x="0" y="856"></rect><rect fill="#14465C" height="16" width="100%" x="0" y="872"></rect><rect fill="#604000" height="112" width="100%" x="0" y="888"></rect></g><g id="vertStripes" mask="url(#grating)"><rect fill="#14465C" height="100%" width="16" x="0" y="0"></rect><rect fill="#604000" height="100%" width="112" x="16" y="0"></rect><rect fill="#14465C" height="100%" width="16" x="128" y="0"></rect><rect fill="#D87C00" height="100%" width="16" x="144" y="0"></rect><rect fill="#880000" height="100%" width="40" x="160" y="0"></rect><rect fill="#649848" height="100%" width="40" x="200" y="0"></rect><rect fill="#14465C" height="100%" width="128" x="240" y="0"></rect><rect fill="#6B8A96" height="100%" width="16" x="368" y="0"></rect><rect fill="#14465C" height="100%" width="16" x="384" y="0"></rect><rect fill="#6B8A96" height="100%" width="216" x="400" y="0"></rect><rect fill="#14465C" height="100%" width="16" x="616" y="0"></rect><rect fill="#6B8A96" height="100%" width="16" x="632" y="0"></rect><rect fill="#14465C" height="100%" width="128" x="648" y="0"></rect><rect fill="#649848" height="100%" width="40" x="776" y="0"></rect><rect fill="#880000" height="100%" width="40" x="816" y="0"></rect><rect fill="#D87C00" height="100%" width="16" x="856" y="0"></rect><rect fill="#14465C" height="100%" width="16" x="872" y="0"></rect><rect fill="#604000" height="100%" width="112" x="888" y="0"></rect></g></svg>